<svg width="512" height="512" viewBox="0 0 512 512" fill="none" xmlns="http://www.w3.org/2000/svg">
  <!-- iOS-style rounded rectangle background -->
  <rect x="0" y="0" width="512" height="512" rx="114.5" ry="114.5" fill="url(#gradient1)"/>
  
  <!-- Gradient Definitions -->
  <defs>
    <linearGradient id="gradient1" x1="0%" y1="0%" x2="100%" y2="100%">
      <stop offset="0%" style="stop-color:#4FC3F7;stop-opacity:1" />
      <stop offset="50%" style="stop-color:#29B6F6;stop-opacity:1" />
      <stop offset="100%" style="stop-color:#0277BD;stop-opacity:1" />
    </linearGradient>
    <linearGradient id="gradient2" x1="0%" y1="0%" x2="100%" y2="100%">
      <stop offset="0%" style="stop-color:#FFFFFF;stop-opacity:0.95" />
      <stop offset="100%" style="stop-color:#FFFFFF;stop-opacity:0.8" />
    </linearGradient>
    <linearGradient id="sunGradient" x1="0%" y1="0%" x2="100%" y2="100%">
      <stop offset="0%" style="stop-color:#FFD54F;stop-opacity:1" />
      <stop offset="100%" style="stop-color:#FF8F00;stop-opacity:1" />
    </linearGradient>
  </defs>
  
  <!-- Sun -->
  <circle cx="320" cy="150" r="50" fill="url(#sunGradient)"/>
  <!-- Sun rays -->
  <g stroke="url(#sunGradient)" stroke-width="8" stroke-linecap="round">
    <line x1="320" y1="75" x2="320" y2="55"/>
    <line x1="395" y1="150" x2="415" y2="150"/>
    <line x1="373" y1="97" x2="386" y2="84"/>
    <line x1="373" y1="203" x2="386" y2="216"/>
    <line x1="267" y1="97" x2="254" y2="84"/>
    <line x1="245" y1="150" x2="225" y2="150"/>
    <line x1="267" y1="203" x2="254" y2="216"/>
    <line x1="320" y1="225" x2="320" y2="245"/>
  </g>
  
  <!-- Main Cloud -->
  <g fill="url(#gradient2)">
    <!-- Cloud base -->
    <ellipse cx="190" cy="300" rx="110" ry="65"/>
    <!-- Cloud bumps -->
    <circle cx="100" cy="275" r="50"/>
    <circle cx="170" cy="235" r="65"/>
    <circle cx="250" cy="245" r="55"/>
    <circle cx="320" cy="275" r="45"/>
    <circle cx="350" cy="310" r="40"/>
  </g>
  
  <!-- Rain drops -->
  <g fill="#0277BD" opacity="0.7">
    <ellipse cx="140" cy="380" rx="8" ry="25"/>
    <ellipse cx="190" cy="390" rx="8" ry="25"/>
    <ellipse cx="240" cy="385" rx="8" ry="25"/>
    <ellipse cx="290" cy="395" rx="8" ry="25"/>
    <ellipse cx="165" cy="420" rx="6" ry="20"/>
    <ellipse cx="215" cy="425" rx="6" ry="20"/>
    <ellipse cx="265" cy="420" rx="6" ry="20"/>
    <ellipse cx="115" cy="410" rx="6" ry="20"/>
    <ellipse cx="315" cy="425" rx="6" ry="20"/>
  </g>
  
  <!-- Smaller decorative clouds -->
  <g fill="url(#gradient2)" opacity="0.6">
    <ellipse cx="80" cy="180" rx="30" ry="18"/>
    <circle cx="65" cy="170" r="15"/>
    <circle cx="90" cy="165" r="18"/>
    
    <ellipse cx="400" cy="350" rx="35" ry="20"/>
    <circle cx="380" cy="340" r="18"/>
    <circle cx="420" cy="335" r="20"/>
  </g>
</svg>
