<svg width="1024" height="1024" viewBox="0 0 1024 1024" fill="none" xmlns="http://www.w3.org/2000/svg">
  <!-- Background Circle with gradient -->
  <circle cx="512" cy="512" r="512" fill="url(#backgroundGradient)"/>
  
  <!-- Gradient Definitions -->
  <defs>
    <linearGradient id="backgroundGradient" x1="0%" y1="0%" x2="100%" y2="100%">
      <stop offset="0%" style="stop-color:#42A5F5;stop-opacity:1" />
      <stop offset="50%" style="stop-color:#2196F3;stop-opacity:1" />
      <stop offset="100%" style="stop-color:#1976D2;stop-opacity:1" />
    </linearGradient>
    <linearGradient id="cloudGradient" x1="0%" y1="0%" x2="100%" y2="100%">
      <stop offset="0%" style="stop-color:#FFFFFF;stop-opacity:0.95" />
      <stop offset="100%" style="stop-color:#FFFFFF;stop-opacity:0.85" />
    </linearGradient>
    <linearGradient id="sunGradient" x1="0%" y1="0%" x2="100%" y2="100%">
      <stop offset="0%" style="stop-color:#FFD54F;stop-opacity:1" />
      <stop offset="100%" style="stop-color:#FFA000;stop-opacity:1" />
    </linearGradient>
    <radialGradient id="sunGlow" cx="50%" cy="50%" r="50%">
      <stop offset="0%" style="stop-color:#FFEB3B;stop-opacity:0.6" />
      <stop offset="100%" style="stop-color:#FF9800;stop-opacity:0" />
    </radialGradient>
  </defs>
  
  <!-- Sun with glow effect -->
  <circle cx="640" cy="300" r="120" fill="url(#sunGlow)"/>
  <circle cx="640" cy="300" r="80" fill="url(#sunGradient)"/>
  
  <!-- Sun rays -->
  <g stroke="url(#sunGradient)" stroke-width="12" stroke-linecap="round">
    <line x1="640" y1="150" x2="640" y2="110"/>
    <line x1="790" y1="300" x2="830" y2="300"/>
    <line x1="746" y1="194" x2="775" y2="165"/>
    <line x1="746" y1="406" x2="775" y2="435"/>
    <line x1="534" y1="194" x2="505" y2="165"/>
    <line x1="490" y1="300" x2="450" y2="300"/>
    <line x1="534" y1="406" x2="505" y2="435"/>
    <line x1="640" y1="450" x2="640" y2="490"/>
  </g>
  
  <!-- Main Cloud -->
  <g fill="url(#cloudGradient)">
    <!-- Cloud base -->
    <ellipse cx="380" cy="600" rx="220" ry="130"/>
    <!-- Cloud bumps for realistic shape -->
    <circle cx="200" cy="550" r="100"/>
    <circle cx="340" cy="470" r="130"/>
    <circle cx="500" cy="490" r="110"/>
    <circle cx="640" cy="550" r="90"/>
    <circle cx="700" cy="620" r="80"/>
  </g>
  
  <!-- Rain drops with varying sizes -->
  <g fill="#1976D2" opacity="0.8">
    <!-- Large drops -->
    <ellipse cx="280" cy="760" rx="12" ry="40"/>
    <ellipse cx="380" cy="780" rx="12" ry="40"/>
    <ellipse cx="480" cy="770" rx="12" ry="40"/>
    <ellipse cx="580" cy="790" rx="12" ry="40"/>
    
    <!-- Medium drops -->
    <ellipse cx="330" cy="820" rx="10" ry="30"/>
    <ellipse cx="430" cy="830" rx="10" ry="30"/>
    <ellipse cx="530" cy="825" rx="10" ry="30"/>
    <ellipse cx="230" cy="810" rx="10" ry="30"/>
    <ellipse cx="630" cy="820" rx="10" ry="30"/>
    
    <!-- Small drops -->
    <ellipse cx="305" cy="870" rx="8" ry="24"/>
    <ellipse cx="405" cy="880" rx="8" ry="24"/>
    <ellipse cx="505" cy="875" rx="8" ry="24"/>
    <ellipse cx="255" cy="860" rx="8" ry="24"/>
    <ellipse cx="605" cy="870" rx="8" ry="24"/>
  </g>
  
  <!-- Smaller decorative clouds for depth -->
  <g fill="url(#cloudGradient)" opacity="0.7">
    <!-- Top left cloud -->
    <ellipse cx="160" cy="360" rx="60" ry="36"/>
    <circle cx="130" cy="340" r="30"/>
    <circle cx="180" cy="330" r="36"/>
    
    <!-- Top right cloud -->
    <ellipse cx="800" cy="700" rx="70" ry="40"/>
    <circle cx="760" cy="680" r="36"/>
    <circle cx="840" cy="670" r="40"/>
  </g>
  
  <!-- Subtle highlight for 3D effect -->
  <ellipse cx="512" cy="400" rx="400" ry="200" fill="url(#cloudGradient)" opacity="0.1"/>
</svg>
